<?xml version="1.0" encoding="UTF-8"?>
<svg id="Layer_1" data-name="Layer 1" xmlns="http://www.w3.org/2000/svg" viewBox="0 0 722.33 160">
  <defs>
    <style>
      .cls-1 {
        fill: #151515;
      }

      .cls-2 {
        fill: #fbf7d9;
      }

      .cls-3 {
        fill: #ff3c0b;
      }
    </style>
  </defs>
  <g>
    <path class="cls-1" d="M224.37,62.39h13.6v41.04l37.64-41.04h15.48l-37.64,40.45,42.21,45.14h-18.64l-39.04-42.68v42.68h-13.6V62.39Z"/>
    <path class="cls-1" d="M295.08,67.55c0-5.16,3.64-8.79,8.68-8.79s8.68,3.63,8.68,8.79-3.64,8.44-8.68,8.44-8.68-3.52-8.68-8.44Zm1.88,15.71h13.48v64.72h-13.48V83.26Z"/>
    <path class="cls-1" d="M339.4,69.66l.12,.12v13.48h16.41v10.79h-16.3v34.24c0,7.74,3.64,10.08,7.97,10.08,3.28,0,5.86-.94,8.32-2.58v10.55c-2.93,1.76-6.45,2.7-11.14,2.7-10.9,0-18.29-3.87-18.29-19.35v-35.64h-10.08v-7.27l22.98-17.12Z"/>
    <path class="cls-1" d="M360.85,141.88v-13.13c7.74,6.1,16.18,9.5,24.62,9.5s11.61-3.75,11.61-8.91c0-6.1-7.5-6.92-15.71-8.32-10.2-1.76-21.69-4.22-21.69-18.29,0-13.25,11.26-20.4,25.56-20.4,10.9,0,18.06,2.93,23.92,6.92v12.9c-7.74-6.57-15.71-9.26-24.39-9.26-7.27,0-11.72,2.93-11.72,8.68s7.62,6.68,15.95,8.09c10.32,1.76,21.92,4.46,21.92,18.76,0,12.78-8.79,20.52-24.27,20.52-11.49,0-18.99-3.05-25.79-7.03Z"/>
    <path class="cls-1" d="M414.55,62.39h10.67l19.35,70.82,26.73-70.82h8.91l26.03,70.93,20.17-70.93h9.38l-24.62,85.59h-9.85l-26.38-71.99-26.97,71.99h-9.73l-23.68-85.59Z"/>
    <path class="cls-1" d="M579.76,136.37c-3.87,7.97-12.66,12.55-22.51,12.55-12.43,0-19.46-6.1-19.46-15.95s7.03-16.18,21.81-19.81c13.13-3.28,19.7-5.04,19.7-11.37,0-5.75-3.87-10.79-15.48-10.79-8.91,0-17.59,3.52-25.09,10.9v-9.73c6.1-5.39,15.01-9.38,25.56-9.38,17.7,0,24.74,8.44,24.74,20.17v45.02h-9.26v-11.61Zm-.35-13.95v-9.61c-2.7,3.4-8.21,5.04-16.53,7.03-11.26,2.81-14.3,6.68-14.3,12.19,0,6.1,4.69,9.38,10.79,9.38,11.96,0,20.05-9.14,20.05-18.99Z"/>
    <path class="cls-1" d="M598.05,83.73h10.2v11.49c4.46-7.86,12.08-12.43,21.69-12.43,17.35,0,24.5,10.55,24.5,27.67v37.52h-10.2v-35.64c0-13.72-4.92-21.57-17-21.57s-18.99,8.79-18.99,22.75v34.47h-10.2V83.73Z"/>
    <path class="cls-1" d="M661.13,115.97c0-20.05,12.78-33.18,29.55-33.18,10.2,0,17.35,4.22,21.57,11.96V56.29h10.08v91.69h-10.08v-11.72c-4.34,7.97-11.84,12.66-22.28,12.66-17,0-28.84-12.9-28.84-32.95Zm51.94,.12c0-16.3-8.09-25.32-20.52-25.32s-20.75,9.14-20.75,25.32,8.09,24.74,20.75,24.74,20.52-8.56,20.52-24.74Z"/>
  </g>
  <g>
    <path class="cls-3" d="M32.56,80.35l10.66-8.68s2.89-1.92,4.81,0,.57,4.43-2.36,7.26-7.73,7.17-7.73,7.17c0,0-3.01,2.06-5.38-1.01s0-4.74,0-4.74Z"/>
    <path class="cls-3" d="M38.57,83.74s27.4,43.63,78.18,15.88l-6.17-7.39s-36.88,23.97-63.99-15.24l-8.03,6.75Z"/>
    <path class="cls-3" d="M169.1,25.11V15.55H97.99l-16.49,13.05H17.63v63.52h10.64V56.43h25.04v16.1c0,.17,0,.34,0,.51,0,.08,0,.16,.01,.23,.38,6.63,5.95,7.85,8.85,8.03h1.73v-24.84h58.53v82.2h-45.96v6.75c11.17,0,10.94,14.16,10.94,14.16h51.31s2.18-14.13-7.16-14.13-10.7-5.15-5.17-5.15,5.35-1.86,5.35-1.86V52.91l37.34-27.8ZM28.27,45.61v-8.6h25.09v8.6H28.27Zm98.16,0h-51.36l10.55-8.6h-.02s.02,0,.02,0l15.88-12.37h52.94l-28.01,20.97Z"/>
    <polygon class="cls-3" points="24.61 149.18 24.61 160 74.43 160 74.43 138.36 28.54 138.36 24.61 149.18"/>
    <path class="cls-3" d="M37.83,106.26c-.88,0-1.84,.09-2.84,.3-10.78,2.17,1.22,8.05-.45,10.41-.71,.99-1.54,1.41-2.38,1.41-2.66,0-5.55-4.12-5.71-7.09-.22-3.95,1.02-5.28,9.44-7.45,6.4-1.65-1.94-9.52-11.15-9.52-2.92,0-5.92,.79-8.58,2.82-2.19,1.66-3.63,2.34-4.58,2.34-3.86,0,.35-11.25-3.93-13.94-1.07-.67-2.03-.93-2.86-.93-1.26,0-2.27,.6-3.04,1.35-1.31,1.28-1.88,3.14-1.71,4.96,.46,4.93,1.65,17.65,2.44,24.41,.99,8.52,7.43,18.57,19.74,18.57s16.84-6.52,21.92-12.96c4.6-5.82,2.2-14.69-6.3-14.69Z"/>
    <path class="cls-3" d="M161.74,120.91s-9.07,15.21-29.93,11.26v-23.8c.85-7.15,5.01-16.27,15.21-19.48,10.17-3.19,12.31,4.19,12.32,4.22,0,0,5.98,9.81,.62,11.76-2.62,.79-5.3-.58-5.63-3.92-.59-5.92-7.31-9.55-10.52,4.06-3.2,13.61-6.45,16.22-6.45,16.22,0,0,5.88,1.64,7.47-10.67,1.58-12.31,8.91-11.05,5.65-4.43-3.25,6.62-.85,11.74,6.84,11.69,7.68-.05,4.42,3.09,4.42,3.09Z"/>
    <path class="cls-3" d="M166.72,102.32c-1.51,5.78-7.21,5.76-10.42,5.25-1.86-.29-3.73,.85-4.15,2.69-1.21,5.4,11.21,6.12,16.54,4.34,6.24-2.08,8.81-14.62,5.18-20.23-3.63-5.6-5.02-.21-7.15,7.95Z"/>
  </g>
  <g>
    <path class="cls-1" d="M206.43,30.55s1.58,10.42-.97,11.63c-2.55,1.2-7.54-8.04-9.74-4.01-.25,.46-.76,1.42-1.49,2.76h0c-5.6,10.43-23.36,43.75-23.36,43.75,0,0-.96,1.57-2.2,4.15-1.23,2.58-2.74,6.17-3.83,10.2-.84,3.31-2.85,5.23-4.88,5.84,5.36-1.95-.62-11.76-.62-11.76l6.45-11.82,25.09-46.04s-14.78,1.58-7.73-5.79c4.51-4.72,9.21-3.86,9.21-3.86,0,0,4.47-11.55,8.09-9.93,3.61,1.63,1.92,8.19,1.92,8.19,0,0,8.99-.64,9.9,2.75,.9,3.39-5.84,3.94-5.84,3.94Z"/>
    <path class="cls-1" d="M181.87,22.34c1.57,.04,2.87-1.21,2.91-2.78,.04-1.57-1.21-2.87-2.78-2.91-1.57-.04-2.87,1.21-2.91,2.78-.04,1.57,1.21,2.87,2.78,2.91Z"/>
    <path class="cls-1" d="M187.33,8.99c2.43-.38,2.64-4.8,2.54-7.45-.04-1.02-1.01-1.74-1.99-1.48l-4.47,1.17c-.66,.17-1.15,.76-1.19,1.45-.3,4.74,1.87,6.83,5.11,6.32Z"/>
    <path class="cls-1" d="M208.78,13.9c.3,.31,.79,.34,1.12,.07l3.88-3.08c.37-.3,.42-.84,.12-1.2l-2.39-2.81c-.46-.54-1.34-.3-1.47,.4l-.29,1.62c-.07,.41-.43,.7-.85,.69l-2.4-.05c-.22,0-.44,.08-.6,.23-.34,.32-.34,.86-.02,1.19l2.89,2.95Z"/>
    <path class="cls-1" d="M216.66,42.42c-.24,.1-.39,.36-.38,.62l.38,6.45c.02,.41,.43,.69,.82,.56l6.46-2.08c.25-.08,.43-.31,.44-.58,.05-1.79-.26-8.22-7.71-4.97Z"/>
    <path class="cls-1" d="M171.11,41.74c2.3,.05,4.21-1.77,4.26-4.07,.05-2.3-1.77-4.21-4.07-4.26-2.3-.05-4.21,1.77-4.26,4.07-.05,2.3,1.77,4.21,4.07,4.26Z"/>
    <path class="cls-1" d="M195.07,52.75c-1.86-.04-3.4,1.43-3.44,3.29s1.43,3.4,3.29,3.44,3.4-1.43,3.44-3.29c.04-1.86-1.43-3.4-3.29-3.44Z"/>
    <path class="cls-1" d="M213.52,28.02c-.54-.08-1.05,.3-1.12,.85-.08,.54,.3,1.05,.85,1.12,.54,.08,1.05-.3,1.12-.85,.08-.54-.3-1.05-.85-1.12Z"/>
    <path class="cls-1" d="M194.42,16.67c1.01,.02,1.85-.78,1.87-1.79,.02-1.01-.78-1.85-1.79-1.87-1.01-.02-1.85,.78-1.87,1.79-.02,1.01,.78,1.85,1.79,1.87Z"/>
    <ellipse class="cls-1" cx="81.37" cy="77.24" rx="6.33" ry="12.61"/>
    <ellipse class="cls-1" cx="106.32" cy="76.99" rx="6.33" ry="11.37"/>
  </g>
  <path class="cls-2" d="M53.34,73.27c0-.08-.01-.16-.01-.23,0-.16,0-.33,0-.51,0,.25,0,.5,.02,.74Z"/>
</svg>